<svg version="1.1" id="Layer_1" xmlns="http://www.w3.org/2000/svg" xmlns:xlink="http://www.w3.org/1999/xlink" x="0px" y="0px"
	 width="100%" viewBox="0 0 1563 1563" enable-background="new 0 0 1563 1563" xml:space="preserve">
<path fill="#FFFFFF" opacity="1.000000" stroke="none" 
	d="
M827.000000,1564.000000 
	C551.333374,1564.000000 276.166779,1564.000000 1.000111,1564.000000 
	C1.000074,1043.000122 1.000074,522.000305 1.000037,1.000320 
	C521.999756,1.000214 1042.999512,1.000214 1563.999512,1.000107 
	C1563.999634,521.999695 1563.999634,1042.999390 1563.999756,1563.999512 
	C1318.500000,1564.000000 1073.000000,1564.000000 827.000000,1564.000000 
M782.763611,1524.894653 
	C783.796082,1524.414917 784.867004,1524.003418 785.855408,1523.445557 
	C851.292175,1486.503418 916.730042,1449.563232 982.151428,1412.593872 
	C1132.957275,1327.374146 1283.744751,1242.122192 1434.612793,1157.012695 
	C1438.378540,1154.888306 1439.439575,1152.619873 1439.437866,1148.481812 
	C1439.336792,908.818359 1439.352295,669.154907 1439.341064,429.491425 
	C1439.340820,423.835052 1439.161987,418.178711 1438.904419,411.889130 
	C1437.013428,410.862396 1435.104858,409.866699 1433.234009,408.804474 
	C1340.506348,356.155853 1247.787842,303.491089 1155.055664,250.850403 
	C1033.304443,181.736740 911.521606,112.678429 789.859741,43.407825 
	C784.838928,40.549141 781.342041,40.698536 776.443298,43.468990 
	C666.131348,105.854797 555.708557,168.044373 445.331177,230.314560 
	C341.041809,289.150146 236.778671,348.032196 132.520340,406.922729 
	C130.326279,408.162048 128.331253,409.753723 125.882195,411.904938 
	C125.680008,413.710876 125.300896,415.516815 125.300697,417.322784 
	C125.273903,661.250488 125.286575,905.178223 125.170654,1149.105957 
	C125.168770,1153.072266 126.599854,1155.060913 129.820511,1156.855225 
	C150.392258,1168.316650 170.898849,1179.895386 191.399200,1191.484497 
	C253.296356,1226.475708 315.181305,1261.488281 377.070038,1296.494385 
	C425.412537,1323.838501 473.743195,1351.203369 522.097168,1378.527222 
	C596.408997,1420.519287 670.725342,1462.503418 745.067749,1504.441162 
	C757.319824,1511.352783 769.715332,1518.010254 782.763611,1524.894653 
z"/>
<path fill="#5D17EB" opacity="1.000000" stroke="none" 
	d="
M126.243362,411.181030 
	C128.331253,409.753723 130.326279,408.162048 132.520340,406.922729 
	C236.778671,348.032196 341.041809,289.150146 445.331177,230.314560 
	C555.708557,168.044373 666.131348,105.854797 776.443298,43.468990 
	C781.342041,40.698536 784.838928,40.549141 789.859741,43.407825 
	C911.521606,112.678429 1033.304443,181.736740 1155.055664,250.850403 
	C1247.787842,303.491089 1340.506348,356.155853 1433.234009,408.804474 
	C1435.104858,409.866699 1437.013428,410.862396 1438.628174,412.339722 
	C1437.662598,413.242798 1436.998657,413.740265 1436.280762,414.141174 
	C1414.249146,426.446381 1392.162476,438.654175 1370.191406,451.066376 
	C1351.746948,461.486359 1333.486938,472.232513 1315.052490,482.670654 
	C1294.890503,494.086945 1274.615601,505.303711 1254.401733,516.628906 
	C1235.080322,527.454102 1215.730591,538.229675 1196.491089,549.198730 
	C1191.322510,552.145569 1186.510864,555.718323 1181.361816,558.678040 
	C1179.343872,557.228516 1177.528320,556.054321 1175.651489,554.988098 
	C1046.515625,481.630371 917.362854,408.302063 788.290039,334.833435 
	C784.320129,332.573730 781.551270,332.588776 777.577209,334.816345 
	C666.877686,396.866028 556.091431,458.760834 445.330811,520.701416 
	C424.900970,532.126343 404.519653,543.638000 383.852631,555.288940 
	C383.395538,556.078003 383.201721,556.687744 382.671387,557.162903 
	C360.389282,544.500305 338.468964,531.927734 316.492645,519.453857 
	C275.153809,495.989655 233.760071,472.622131 192.433975,449.135498 
	C170.322205,436.568878 148.303864,423.837860 126.243362,411.181030 
z"/>
<path fill="#39B6FF" opacity="1.000000" stroke="none" 
	d="
M126.062775,411.542969 
	C148.303864,423.837860 170.322205,436.568878 192.433975,449.135498 
	C233.760071,472.622131 275.153809,495.989655 316.492645,519.453857 
	C338.468964,531.927734 360.389282,544.500305 382.660675,557.604614 
	C382.985077,701.027649 382.983368,843.874268 382.983337,986.720947 
	C382.983337,992.880981 382.886932,999.044861 383.097839,1005.197937 
	C383.141388,1006.468750 384.355164,1007.699463 385.363037,1009.050232 
	C411.042419,1023.601746 436.384216,1038.058838 461.735016,1052.500244 
	C537.221802,1095.502197 612.719849,1138.484619 688.197693,1181.502319 
	C719.575623,1199.385620 750.913757,1217.338989 782.252808,1235.711792 
	C782.222534,1325.047729 782.212952,1413.932495 782.190063,1502.817139 
	C782.188171,1510.139771 782.095215,1517.462524 782.044556,1524.785156 
	C769.715332,1518.010254 757.319824,1511.352783 745.067749,1504.441162 
	C670.725342,1462.503418 596.408997,1420.519287 522.097168,1378.527222 
	C473.743195,1351.203369 425.412537,1323.838501 377.070038,1296.494385 
	C315.181305,1261.488281 253.296356,1226.475708 191.399200,1191.484497 
	C170.898849,1179.895386 150.392258,1168.316650 129.820511,1156.855225 
	C126.599854,1155.060913 125.168770,1153.072266 125.170654,1149.105957 
	C125.286575,905.178223 125.273903,661.250488 125.300697,417.322784 
	C125.300896,415.516815 125.680008,413.710876 126.062775,411.542969 
z"/>
<path fill="#213260" opacity="1.000000" stroke="none" 
	d="
M782.404114,1524.839844 
	C782.095215,1517.462524 782.188171,1510.139771 782.190063,1502.817139 
	C782.212952,1413.932495 782.222534,1325.047729 782.576965,1235.604004 
	C799.635925,1225.545654 816.364929,1216.066650 833.069031,1206.543823 
	C932.600525,1149.802246 1032.131836,1093.060303 1131.648315,1036.292603 
	C1148.342529,1026.769653 1164.964966,1017.120728 1181.740723,1007.205322 
	C1181.877686,1006.381409 1181.909180,1005.882263 1181.909180,1005.383057 
	C1181.910278,858.629517 1181.909302,711.876038 1181.899780,565.122498 
	C1181.899658,563.964478 1181.781006,562.806396 1181.613770,561.215271 
	C1181.518433,560.189392 1181.526978,559.596619 1181.535522,559.003784 
	C1186.510864,555.718323 1191.322510,552.145569 1196.491089,549.198730 
	C1215.730591,538.229675 1235.080322,527.454102 1254.401733,516.628906 
	C1274.615601,505.303711 1294.890503,494.086945 1315.052490,482.670654 
	C1333.486938,472.232513 1351.746948,461.486359 1370.191406,451.066376 
	C1392.162476,438.654175 1414.249146,426.446381 1436.280762,414.141174 
	C1436.998657,413.740265 1437.662598,413.242798 1438.709229,412.656342 
	C1439.161987,418.178711 1439.340820,423.835052 1439.341064,429.491425 
	C1439.352295,669.154907 1439.336792,908.818359 1439.437866,1148.481812 
	C1439.439575,1152.619873 1438.378540,1154.888306 1434.612793,1157.012695 
	C1283.744751,1242.122192 1132.957275,1327.374146 982.151428,1412.593872 
	C916.730042,1449.563232 851.292175,1486.503418 785.855408,1523.445557 
	C784.867004,1524.003418 783.796082,1524.414917 782.404114,1524.839844 
z"/>
<path fill="#FFFFFF" opacity="1.000000" stroke="none" 
	d="
M1181.620483,1007.529968 
	C1164.964966,1017.120728 1148.342529,1026.769653 1131.648315,1036.292603 
	C1032.131836,1093.060303 932.600525,1149.802246 833.069031,1206.543823 
	C816.364929,1216.066650 799.635925,1225.545654 782.594238,1235.152588 
	C750.913757,1217.338989 719.575623,1199.385620 688.197693,1181.502319 
	C612.719849,1138.484619 537.221802,1095.502197 461.735016,1052.500244 
	C436.384216,1038.058838 411.042419,1023.601746 385.140930,1008.691528 
	C384.335419,1006.289856 383.866089,1004.348389 383.866852,1002.406982 
	C383.926178,853.307861 384.022491,704.208679 384.115906,555.109558 
	C404.519653,543.638000 424.900970,532.126343 445.330811,520.701416 
	C556.091431,458.760834 666.877686,396.866028 777.577209,334.816345 
	C781.551270,332.588776 784.320129,332.573730 788.290039,334.833435 
	C917.362854,408.302063 1046.515625,481.630371 1175.651489,554.988098 
	C1177.528320,556.054321 1179.343872,557.228516 1181.361816,558.678101 
	C1181.526978,559.596619 1181.518433,560.189392 1181.461670,561.584961 
	C1181.397705,562.887024 1181.368530,563.386292 1181.368530,563.885559 
	C1181.366333,710.445129 1181.365479,857.004639 1181.376465,1003.564209 
	C1181.376587,1004.886108 1181.535645,1006.208069 1181.620483,1007.529968 
M642.927673,701.401123 
	C641.841736,701.821045 640.776794,702.309326 639.666748,702.650940 
	C615.859253,709.974976 592.058411,717.321228 568.231018,724.580078 
	C551.720154,729.609924 535.164551,734.492737 518.642029,739.484497 
	C510.068726,742.074707 501.486237,744.645203 492.985962,747.460449 
	C489.890198,748.485657 486.543823,749.669861 486.529633,754.016602 
	C486.516113,758.156311 489.319794,759.694031 492.558746,760.989929 
	C495.486603,762.161377 498.353333,763.484436 501.264404,764.698853 
	C544.558960,782.761169 587.869995,800.784302 631.103394,818.991699 
	C632.817932,819.713745 634.578247,821.991760 635.008362,823.848022 
	C641.011292,849.759277 646.813599,875.717224 652.608704,901.676331 
	C658.876343,929.752258 665.077881,957.843018 671.324097,985.923767 
	C673.201965,994.365784 674.886841,1002.864319 677.198975,1011.187256 
	C677.839355,1013.492371 680.113647,1016.396423 682.190796,1016.949097 
	C684.207458,1017.485657 686.980347,1015.454468 689.323059,1014.344116 
	C690.161987,1013.946472 690.699219,1012.929749 691.400208,1012.221375 
	C730.581970,972.622314 769.880188,933.137146 808.825989,893.307434 
	C814.556213,887.447083 819.086243,885.454651 827.383545,888.708252 
	C849.128418,897.235291 871.386475,904.453186 893.438477,912.197266 
	C906.271362,916.703796 919.076599,921.290894 931.944519,925.694946 
	C937.071960,927.449890 939.282410,926.124023 940.928406,920.964844 
	C941.280212,919.862366 941.668213,918.768250 942.102173,917.695679 
	C961.789978,869.028015 981.482910,820.362427 1001.179138,771.698120 
	C1022.815857,718.239319 1044.458374,664.782715 1066.093628,611.323242 
	C1070.140991,601.322632 1074.425781,591.405090 1078.029297,581.246399 
	C1078.997559,578.516846 1078.739502,574.610535 1077.468140,572.017395 
	C1075.905396,568.830017 1072.357178,570.080566 1069.403076,570.999817 
	C1058.621704,574.354614 1047.810913,577.614990 1037.011475,580.911377 
	C1007.336731,589.969116 977.652771,598.996887 947.990845,608.096436 
	C929.907104,613.644043 911.877930,619.370117 893.786743,624.893127 
	C872.514526,631.387268 851.184204,637.691040 829.911194,644.182617 
	C807.518738,651.015869 785.169617,657.990784 762.791809,664.872070 
	C739.312805,672.091919 715.828430,679.294067 692.334778,686.466003 
	C676.135437,691.411194 659.916443,696.291931 642.927673,701.401123 
z"/>
<path fill="#9295D7" opacity="1.000000" stroke="none" 
	d="
M383.852631,555.288940 
	C384.022491,704.208679 383.926178,853.307861 383.866852,1002.406982 
	C383.866089,1004.348389 384.335419,1006.289856 384.807434,1008.589966 
	C384.355164,1007.699463 383.141388,1006.468750 383.097839,1005.197937 
	C382.886932,999.044861 382.983337,992.880981 382.983337,986.720947 
	C382.983368,843.874268 382.985077,701.027649 382.997192,557.739258 
	C383.201721,556.687744 383.395538,556.078003 383.852631,555.288940 
z"/>
<path fill="#5D17EB" opacity="1.000000" stroke="none" 
	d="
M1181.740723,1007.205322 
	C1181.535645,1006.208069 1181.376587,1004.886108 1181.376465,1003.564209 
	C1181.365479,857.004639 1181.366333,710.445129 1181.368530,563.885559 
	C1181.368530,563.386292 1181.397705,562.887024 1181.565430,562.018066 
	C1181.781006,562.806396 1181.899658,563.964478 1181.899780,565.122498 
	C1181.909302,711.876038 1181.910278,858.629517 1181.909180,1005.383057 
	C1181.909180,1005.882263 1181.877686,1006.381409 1181.740723,1007.205322 
z"/>
<path fill="#0AA2F9" opacity="1.000000" stroke="none" 
	d="
M643.316956,701.301270 
	C659.916443,696.291931 676.135437,691.411194 692.334778,686.466003 
	C715.828430,679.294067 739.312805,672.091919 762.791809,664.872070 
	C785.169617,657.990784 807.518738,651.015869 829.911194,644.182617 
	C851.184204,637.691040 872.514526,631.387268 893.786743,624.893127 
	C911.877930,619.370117 929.907104,613.644043 947.990845,608.096436 
	C977.652771,598.996887 1007.336731,589.969116 1037.011475,580.911377 
	C1047.810913,577.614990 1058.621704,574.354614 1069.403076,570.999817 
	C1072.357178,570.080566 1075.905396,568.830017 1077.468140,572.017395 
	C1078.739502,574.610535 1078.997559,578.516846 1078.029297,581.246399 
	C1074.425781,591.405090 1070.140991,601.322632 1066.093628,611.323242 
	C1044.458374,664.782715 1022.815857,718.239319 1001.179138,771.698120 
	C981.482910,820.362427 961.789978,869.028015 942.102173,917.695679 
	C941.668213,918.768250 941.280212,919.862366 940.928406,920.964844 
	C939.282410,926.124023 937.071960,927.449890 931.944519,925.694946 
	C919.076599,921.290894 906.271362,916.703796 893.438477,912.197266 
	C871.386475,904.453186 849.128418,897.235291 827.383545,888.708252 
	C819.086243,885.454651 814.556213,887.447083 808.825989,893.307434 
	C769.880188,933.137146 730.581970,972.622314 691.400208,1012.221375 
	C690.699219,1012.929749 690.161987,1013.946472 689.323059,1014.344116 
	C686.980347,1015.454468 684.207458,1017.485657 682.190796,1016.949097 
	C680.113647,1016.396423 677.839355,1013.492371 677.198975,1011.187256 
	C674.886841,1002.864319 673.201965,994.365784 671.324097,985.923767 
	C665.077881,957.843018 658.876343,929.752258 652.608704,901.676331 
	C646.813599,875.717224 641.011292,849.759277 635.008362,823.848022 
	C634.578247,821.991760 632.817932,819.713745 631.103394,818.991699 
	C587.869995,800.784302 544.558960,782.761169 501.264404,764.698853 
	C498.353333,763.484436 495.486603,762.161377 492.558746,760.989929 
	C489.319794,759.694031 486.516113,758.156311 486.529633,754.016602 
	C486.543823,749.669861 489.890198,748.485657 492.985962,747.460449 
	C501.486237,744.645203 510.068726,742.074707 518.642029,739.484497 
	C535.164551,734.492737 551.720154,729.609924 568.231018,724.580078 
	C592.058411,717.321228 615.859253,709.974976 639.666748,702.650940 
	C640.776794,702.309326 641.841736,701.821045 643.316956,701.301270 
M848.815918,883.687073 
	C876.318542,893.411011 903.821167,903.135010 931.591187,912.953552 
	C974.229065,806.974487 1016.703125,701.402771 1059.177124,595.830994 
	C1058.880615,595.679749 1058.584106,595.528564 1058.287720,595.377380 
	C951.245850,678.181213 844.203979,760.984985 736.614990,844.212036 
	C756.763062,851.327515 776.104004,858.185303 795.464600,864.987122 
	C812.996399,871.146484 830.549744,877.244751 848.815918,883.687073 
M583.315613,732.833252 
	C559.300781,740.156006 535.285889,747.478821 510.721191,754.969238 
	C511.781128,755.841370 512.004333,756.128174 512.296387,756.250732 
	C553.765869,773.647400 595.229309,791.058533 636.759155,808.309875 
	C638.231323,808.921387 640.644592,808.454224 642.147278,807.629700 
	C670.192383,792.242371 698.161560,776.716797 726.155151,761.235413 
	C783.752563,729.382019 841.350098,697.528870 898.957092,665.692810 
	C929.843628,648.623535 960.759033,631.606689 991.639282,614.526123 
	C997.790833,611.123596 1003.841553,607.538635 1009.938782,604.037842 
	C1009.779480,603.604736 1009.620178,603.171631 1009.460876,602.738525 
	C1007.311707,603.097656 1005.092896,603.226501 1003.024353,603.852234 
	C986.497925,608.851562 970.000793,613.947693 953.493042,619.008606 
	C928.889771,626.551514 904.277283,634.064270 879.683228,641.637207 
	C852.545898,649.993164 825.434692,658.434204 798.294312,666.780212 
	C768.620728,675.905396 738.924988,684.958130 709.242432,694.054016 
	C684.327820,701.688843 659.412415,709.320984 634.508728,716.991089 
	C617.692627,722.170349 600.896362,727.413635 583.315613,732.833252 
M704.185791,902.620850 
	C708.745483,884.057312 713.189270,865.463684 717.988525,846.962280 
	C718.717651,844.151611 720.540405,841.055908 722.796509,839.296021 
	C752.705688,815.963501 782.791504,792.857666 812.815979,769.672852 
	C864.356873,729.873047 915.893311,690.067505 967.412903,650.240112 
	C977.913147,642.122864 988.330688,633.898560 998.786377,625.723633 
	C997.062012,625.140320 995.723206,625.245056 994.657837,625.839600 
	C988.011108,629.549011 981.471497,633.451050 974.812439,637.137634 
	C902.550720,677.142578 830.272278,717.117249 758.001160,757.105286 
	C722.314026,776.851135 686.651184,796.641052 650.915894,816.299255 
	C647.916260,817.949341 646.241089,819.537476 647.112671,823.241211 
	C650.006958,835.539795 652.710815,847.883301 655.472046,860.213013 
	C661.974670,889.249329 668.456299,918.290283 674.971191,947.323792 
	C677.678467,959.388550 680.449036,971.439148 683.190796,983.496155 
	C683.565125,983.499451 683.939392,983.502808 684.313721,983.506165 
	C690.864075,956.810303 697.414490,930.114502 704.185791,902.620850 
M702.959351,957.471130 
	C700.278137,968.451111 697.596924,979.431030 695.389038,988.472839 
	C731.182983,953.665894 767.923584,917.938354 805.735291,881.169312 
	C778.969482,871.801147 753.914490,863.031738 728.511353,854.140503 
	C719.886658,888.936951 711.494690,922.794312 702.959351,957.471130 
z"/>
<path fill="#FEFFFF" opacity="1.000000" stroke="none" 
	d="
M848.454773,883.528503 
	C830.549744,877.244751 812.996399,871.146484 795.464600,864.987122 
	C776.104004,858.185303 756.763062,851.327515 736.614990,844.212036 
	C844.203979,760.984985 951.245850,678.181213 1058.287720,595.377380 
	C1058.584106,595.528564 1058.880615,595.679749 1059.177124,595.830994 
	C1016.703125,701.402771 974.229065,806.974487 931.591187,912.953552 
	C903.821167,903.135010 876.318542,893.411011 848.454773,883.528503 
z"/>
<path fill="#FDFEFF" opacity="1.000000" stroke="none" 
	d="
M583.703369,732.730713 
	C600.896362,727.413635 617.692627,722.170349 634.508728,716.991089 
	C659.412415,709.320984 684.327820,701.688843 709.242432,694.054016 
	C738.924988,684.958130 768.620728,675.905396 798.294312,666.780212 
	C825.434692,658.434204 852.545898,649.993164 879.683228,641.637207 
	C904.277283,634.064270 928.889771,626.551514 953.493042,619.008606 
	C970.000793,613.947693 986.497925,608.851562 1003.024353,603.852234 
	C1005.092896,603.226501 1007.311707,603.097656 1009.460876,602.738525 
	C1009.620178,603.171631 1009.779480,603.604736 1009.938782,604.037842 
	C1003.841553,607.538635 997.790833,611.123596 991.639282,614.526123 
	C960.759033,631.606689 929.843628,648.623535 898.957092,665.692810 
	C841.350098,697.528870 783.752563,729.382019 726.155151,761.235413 
	C698.161560,776.716797 670.192383,792.242371 642.147278,807.629700 
	C640.644592,808.454224 638.231323,808.921387 636.759155,808.309875 
	C595.229309,791.058533 553.765869,773.647400 512.296387,756.250732 
	C512.004333,756.128174 511.781128,755.841370 510.721191,754.969238 
	C535.285889,747.478821 559.300781,740.156006 583.703369,732.730713 
z"/>
<path fill="#FCFEFF" opacity="1.000000" stroke="none" 
	d="
M704.075317,903.019775 
	C697.414490,930.114502 690.864075,956.810303 684.313721,983.506165 
	C683.939392,983.502808 683.565125,983.499451 683.190796,983.496155 
	C680.449036,971.439148 677.678467,959.388550 674.971191,947.323792 
	C668.456299,918.290283 661.974670,889.249329 655.472046,860.213013 
	C652.710815,847.883301 650.006958,835.539795 647.112671,823.241211 
	C646.241089,819.537476 647.916260,817.949341 650.915894,816.299255 
	C686.651184,796.641052 722.314026,776.851135 758.001160,757.105286 
	C830.272278,717.117249 902.550720,677.142578 974.812439,637.137634 
	C981.471497,633.451050 988.011108,629.549011 994.657837,625.839600 
	C995.723206,625.245056 997.062012,625.140320 998.786377,625.723633 
	C988.330688,633.898560 977.913147,642.122864 967.412903,650.240112 
	C915.893311,690.067505 864.356873,729.873047 812.815979,769.672852 
	C782.791504,792.857666 752.705688,815.963501 722.796509,839.296021 
	C720.540405,841.055908 718.717651,844.151611 717.988525,846.962280 
	C713.189270,865.463684 708.745483,884.057312 704.075317,903.019775 
z"/>
<path fill="#FCFEFF" opacity="1.000000" stroke="none" 
	d="
M703.031006,957.061401 
	C711.494690,922.794312 719.886658,888.936951 728.511353,854.140503 
	C753.914490,863.031738 778.969482,871.801147 805.735291,881.169312 
	C767.923584,917.938354 731.182983,953.665894 695.389038,988.472839 
	C697.596924,979.431030 700.278137,968.451111 703.031006,957.061401 
z"/>
</svg>